<svg width="75" height="76" viewBox="0 0 75 76" fill="none" xmlns="http://www.w3.org/2000/svg">
<path fill-rule="evenodd" clip-rule="evenodd" d="M16.0364 7.246C13.3539 9.12168 10.9282 11.3393 8.82248 13.8358C17.4274 13.0369 28.3597 14.3413 41.052 20.6875C54.6056 27.4642 65.5196 27.6933 73.1152 26.2282C72.426 24.1415 71.5583 22.136 70.5306 20.2295C61.8356 21.1465 50.6887 19.9327 37.698 13.4375C29.4487 9.31283 22.1771 7.61376 16.0364 7.246ZM65.4514 13C58.5849 5.32812 48.6064 0.5 37.5 0.5C34.2384 0.5 31.0738 0.916451 28.0569 1.69903C32.1429 2.81391 36.4835 4.44497 41.052 6.72925C50.5631 11.4847 58.7745 13.0159 65.4514 13ZM74.7392 33.5527C65.5629 35.3647 52.8915 34.9925 37.698 27.3957C23.4937 20.2936 12.1883 20.383 4.56357 22.0775C4.17 22.1648 3.7857 22.2567 3.41069 22.3523C2.41242 24.5234 1.61557 26.8064 1.04382 29.1772C1.65448 29.014 2.2855 28.859 2.93655 28.7142C12.1867 26.6587 25.2564 26.7479 41.052 34.6458C55.2564 41.7479 66.5617 41.6585 74.1866 39.964C74.4478 39.9061 74.7053 39.8461 74.9584 39.7842C74.9861 39.193 75 38.5981 75 38C75 36.4953 74.9115 35.0112 74.7392 33.5527ZM73.734 47.6981C64.6468 49.2867 52.3444 48.677 37.698 41.354C23.4937 34.2519 12.1883 34.3413 4.56357 36.0357C2.8711 36.4117 1.34857 36.8697 0.00549376 37.3533C0.00183188 37.5684 0 37.784 0 38C0 58.7107 16.7893 75.5 37.5 75.5C54.857 75.5 69.4599 63.7079 73.734 47.6981Z" fill="white"/>
</svg>
